<?xml version="1.0" encoding="UTF-8" standalone="no"?>
<!DOCTYPE svg PUBLIC "-//W3C//DTD SVG 1.1//EN"
 "http://www.w3.org/Graphics/SVG/1.1/DTD/svg11.dtd">
<!-- Generated by graphviz version 2.40.1 (20161225.0304)
 -->
<!-- Title: G Pages: 1 -->
<svg width="644pt" height="381pt"
 viewBox="0.00 0.00 643.71 381.04" xmlns="http://www.w3.org/2000/svg" xmlns:xlink="http://www.w3.org/1999/xlink">
<g id="graph0" class="graph" transform="scale(1 1) rotate(0) translate(4 377.0437)">
<title>G</title>
<polygon fill="#ffffff" stroke="transparent" points="-4,4 -4,-377.0437 639.7067,-377.0437 639.7067,4 -4,4"/>
<!-- root -->
<g id="node1" class="node">
<title>root</title>
<ellipse fill="none" stroke="#000000" cx="271.7067" cy="-291.262" rx="77.5747" ry="77.5747"/>
<ellipse fill="none" stroke="#000000" cx="271.7067" cy="-291.262" rx="81.5641" ry="81.5641"/>
<text text-anchor="start" x="204.2812" y="-295.062" font-family="Times,serif" font-size="14.00" fill="#000000">Y (tiger&#45;left) 0.5</text>
<text text-anchor="start" x="204.2812" y="-280.062" font-family="Times,serif" font-size="14.00" fill="#000000">A (listen)</text>
</g>
<!-- x0row1 -->
<g id="node3" class="node">
<title>x0row1</title>
<ellipse fill="none" stroke="#000000" cx="112.7067" cy="-131.6102" rx="82.9636" ry="26.7407"/>
<text text-anchor="start" x="62.2067" y="-135.4102" font-family="Times,serif" font-size="14.00" fill="#000000">Y (tiger&#45;left) 0.85</text>
<text text-anchor="start" x="62.2067" y="-120.4102" font-family="Times,serif" font-size="14.00" fill="#000000">A (listen)</text>
</g>
<!-- root&#45;&gt;x0row1 -->
<g id="edge1" class="edge">
<title>root&#45;&gt;x0row1</title>
<path fill="none" stroke="#000000" d="M192.0606,-272.1767C121.6495,-253.5016 26.7806,-223.2946 4.7067,-191.4802 -8.5141,-172.4257 8.7245,-158.7841 33.0403,-149.3833"/>
<polygon fill="#000000" stroke="#000000" points="34.3945,-152.6169 42.6574,-145.9855 32.0626,-146.0167 34.3945,-152.6169"/>
<text text-anchor="start" x="4.7067" y="-180.2802" font-family="Times,serif" font-size="14.00" fill="#000000">o (obs&#45;left) 0.5</text>
</g>
<!-- x0row2 -->
<g id="node4" class="node">
<title>x0row2</title>
<ellipse fill="none" stroke="#000000" cx="427.7067" cy="-131.6102" rx="89.191" ry="26.7407"/>
<text text-anchor="start" x="372.7067" y="-135.4102" font-family="Times,serif" font-size="14.00" fill="#000000">Y (tiger&#45;right) 0.85</text>
<text text-anchor="start" x="372.7067" y="-120.4102" font-family="Times,serif" font-size="14.00" fill="#000000">A (listen)</text>
</g>
<!-- root&#45;&gt;x0row2 -->
<g id="edge2" class="edge">
<title>root&#45;&gt;x0row2</title>
<path fill="none" stroke="#000000" d="M281.5298,-209.9335C285.8934,-197.6713 292.0512,-185.9724 300.7067,-176.4802 308.3582,-168.089 328.4843,-159.6064 350.5179,-152.3095"/>
<polygon fill="#000000" stroke="#000000" points="351.5904,-155.6412 360.0469,-149.2586 349.4559,-148.9746 351.5904,-155.6412"/>
<text text-anchor="start" x="300.7067" y="-180.2802" font-family="Times,serif" font-size="14.00" fill="#000000">o (obs&#45;right) 0.5</text>
</g>
<!-- x0row5 -->
<g id="node2" class="node">
<title>x0row5</title>
<ellipse fill="none" stroke="#000000" cx="489.7067" cy="-26.8701" rx="89.191" ry="26.7407"/>
<text text-anchor="start" x="434.7067" y="-30.6701" font-family="Times,serif" font-size="14.00" fill="#000000">Y (tiger&#45;right) 0.97</text>
<text text-anchor="start" x="434.7067" y="-15.6701" font-family="Times,serif" font-size="14.00" fill="#000000">A (open&#45;left)</text>
</g>
<!-- x0row5&#45;&gt;root -->
<g id="edge8" class="edge">
<title>x0row5&#45;&gt;root</title>
<path fill="none" stroke="#000000" d="M524.5673,-51.8069C530.3158,-57.6467 535.4535,-64.3501 538.7067,-71.7401 560.7265,-121.7614 549.9493,-153.4406 510.7067,-191.4802 469.6941,-231.2356 410.5347,-256.1057 361.3365,-271.0742"/>
<polygon fill="#000000" stroke="#000000" points="360.2378,-267.7492 351.638,-273.9374 362.2198,-274.4628 360.2378,-267.7492"/>
<text text-anchor="start" x="549.7067" y="-127.9102" font-family="Times,serif" font-size="14.00" fill="#000000">o (obs&#45;left) 0.5</text>
</g>
<!-- x0row1&#45;&gt;root -->
<g id="edge4" class="edge">
<title>x0row1&#45;&gt;root</title>
<path fill="none" stroke="#000000" d="M107.8066,-158.6909C107.1676,-169.5085 108.2051,-181.6933 113.7067,-191.4802 129.773,-220.0615 157.7781,-241.6271 185.7918,-257.262"/>
<polygon fill="#000000" stroke="#000000" points="184.4053,-260.49 194.8723,-262.1313 187.7134,-254.3209 184.4053,-260.49"/>
<text text-anchor="start" x="113.7067" y="-180.2802" font-family="Times,serif" font-size="14.00" fill="#000000">o (obs&#45;right) 0.255</text>
</g>
<!-- x0row3 -->
<g id="node5" class="node">
<title>x0row3</title>
<ellipse fill="none" stroke="#000000" cx="176.7067" cy="-26.8701" rx="82.9636" ry="26.7407"/>
<text text-anchor="start" x="126.2067" y="-30.6701" font-family="Times,serif" font-size="14.00" fill="#000000">Y (tiger&#45;left) 0.97</text>
<text text-anchor="start" x="126.2067" y="-15.6701" font-family="Times,serif" font-size="14.00" fill="#000000">A (open&#45;right)</text>
</g>
<!-- x0row1&#45;&gt;x0row3 -->
<g id="edge3" class="edge">
<title>x0row1&#45;&gt;x0row3</title>
<path fill="none" stroke="#000000" d="M111.4865,-104.6057C112.0795,-93.7998 114.1877,-81.6031 119.7067,-71.7401 122.4741,-66.7944 126.0298,-62.201 130.0112,-57.9888"/>
<polygon fill="#000000" stroke="#000000" points="132.7154,-60.2477 137.5592,-50.8249 127.8965,-55.1704 132.7154,-60.2477"/>
<text text-anchor="start" x="119.7067" y="-75.5401" font-family="Times,serif" font-size="14.00" fill="#000000">o (obs&#45;left) 0.745</text>
</g>
<!-- x0row2&#45;&gt;root -->
<g id="edge6" class="edge">
<title>x0row2&#45;&gt;root</title>
<path fill="none" stroke="#000000" d="M416.2789,-158.3774C410.922,-169.2671 403.9039,-181.5891 395.7067,-191.4802 381.6395,-208.4541 364.297,-224.5394 347.087,-238.6414"/>
<polygon fill="#000000" stroke="#000000" points="344.8046,-235.9854 339.2012,-244.9772 349.189,-241.4423 344.8046,-235.9854"/>
<text text-anchor="start" x="405.7067" y="-180.2802" font-family="Times,serif" font-size="14.00" fill="#000000">o (obs&#45;left) 0.255</text>
</g>
<!-- x0row2&#45;&gt;x0row5 -->
<g id="edge7" class="edge">
<title>x0row2&#45;&gt;x0row5</title>
<path fill="none" stroke="#000000" d="M423.158,-104.7188C422.5728,-93.9302 423.5556,-81.7159 428.7067,-71.7401 431.4115,-66.5017 435.0405,-61.7218 439.1869,-57.4003"/>
<polygon fill="#000000" stroke="#000000" points="441.617,-59.9202 446.5817,-50.5605 436.8639,-54.7814 441.617,-59.9202"/>
<text text-anchor="start" x="428.7067" y="-75.5401" font-family="Times,serif" font-size="14.00" fill="#000000">o (obs&#45;right) 0.745</text>
</g>
<!-- x0row3&#45;&gt;root -->
<g id="edge5" class="edge">
<title>x0row3&#45;&gt;root</title>
<path fill="none" stroke="#000000" d="M206.3656,-52.416C211.7932,-58.2915 216.9272,-64.8536 220.7067,-71.7401 224.0155,-77.769 239.0764,-143.406 251.9808,-201.3493"/>
<polygon fill="#000000" stroke="#000000" points="248.6095,-202.313 254.1961,-211.3153 255.4427,-200.7941 248.6095,-202.313"/>
<text text-anchor="start" x="242.7067" y="-127.9102" font-family="Times,serif" font-size="14.00" fill="#000000">o (obs&#45;left) 0.5</text>
</g>
</g>
</svg>
